<?xml version="1.0" encoding="utf-8"?>
<!-- Generator: Adobe Illustrator 25.0.0, SVG Export Plug-In . SVG Version: 6.00 Build 0)  -->
<svg version="1.1" id="Layer_1" xmlns="http://www.w3.org/2000/svg" xmlns:xlink="http://www.w3.org/1999/xlink" x="0px" y="0px"
	 viewBox="0 0 250 250" style="enable-background:new 0 0 250 250;" xml:space="preserve">
<style type="text/css">
	.st0{fill:#DF2B2F;}
</style>
<path class="st0" d="M-24.2,128.1 M76.3,81.9l50.1,20.8l49.9-20.8c30.3-12.7,51.4-20.8,53.8-20.8c2.8,0,4.4,0.7,5.3,2.3
	c1.3,2.6,1.8,85.5,0.5,92.1c-0.5,2-2,4.9-3.5,6.3c-3.3,3.2-50.5,22.7-53.8,22.3c-2.3-0.4-2.4-1.2-2.4-15.8V153l14.4-6
	c7.9-3.2,14.7-6.2,15.3-6.8c0.5-0.5,0.7-9,0.6-19l-0.4-18.1L175,116l-31.1,12.9l-0.6,34.3c-0.5,28.7-0.8,34.5-2.4,35.4
	c-2.9,1.9-28.1,1.6-29.8-0.4c-0.8-1.1-1.4-12.9-1.6-35.5l-0.4-34l-31.1-12.9C61,108.8,46.9,103,46.6,103c-0.1,0-0.1,8.4,0,18.7
	l0.4,18.5l15,6.2l15,6.2l0.4,15.2c0.4,18.4,0.1,18.7-13.9,12.9c-40-16.5-43.3-18.2-45.1-21.7c-1.4-2.8-1.8-11.1-1.8-48.8
	c0-25,0.4-46.2,0.7-47.3C18.9,58.7,26.3,61.1,76.3,81.9z"/>
</svg>
